<?xml version="1.0" encoding="iso-8859-1"?>
<!-- Uploaded to: SVG Repo, www.svgrepo.com, Generator: SVG Repo Mixer Tools -->
<svg fill="#ffffff" height="800px" width="800px" version="1.1" id="Layer_1" xmlns="http://www.w3.org/2000/svg" xmlns:xlink="http://www.w3.org/1999/xlink"
	 viewBox="0 0 222.786 222.786" xml:space="preserve">
<g>
	<g>
		<g>
			<path d="M135.193,59.5c0-13.124-10.676-23.8-23.8-23.8c-13.124,0-23.8,10.676-23.8,23.8s10.676,23.8,23.8,23.8
				C124.517,83.3,135.193,72.624,135.193,59.5z M111.393,75.367c-8.749,0-15.867-7.118-15.867-15.867s7.118-15.867,15.867-15.867
				S127.26,50.751,127.26,59.5S120.142,75.367,111.393,75.367z"/>
			<path d="M174.366,216.85l-58.441-105.783h7.368c2.19,0,3.967-1.776,3.967-3.967V95.2h35.7c2.19,0,3.967-1.776,3.967-3.967V27.767
				c0-2.19-1.776-3.967-3.967-3.967h-27.945l-3.856-20.564C130.806,1.36,129.169,0,127.26,0H95.526c-1.91,0-3.546,1.36-3.899,3.236
				L87.771,23.8H59.826c-2.19,0-3.967,1.776-3.967,3.967v63.467c0,2.19,1.776,3.967,3.967,3.967h35.7v11.9
				c0,2.19,1.776,3.967,3.967,3.967h7.368L48.42,216.85c-1.059,1.917-0.362,4.331,1.555,5.39c0.608,0.335,1.265,0.494,1.914,0.494
				c1.398,0,2.752-0.74,3.477-2.049l52.061-94.235v92.369c0,2.19,1.776,3.967,3.967,3.967c2.19,0,3.967-1.776,3.967-3.967V126.45
				l52.061,94.235c0.724,1.311,2.078,2.049,3.477,2.049c0.649,0,1.305-0.159,1.914-0.494
				C174.728,221.181,175.425,218.767,174.366,216.85z M63.793,87.266c0,0.001,0-55.533,0-55.533h27.271
				c1.91,0,3.546-1.36,3.899-3.236l3.856-20.564h25.148l3.856,20.564c0.352,1.877,1.989,3.236,3.899,3.236h27.271v55.533h-35.7
				h-23.8H63.793z M103.46,103.133V95.2h15.867v7.933H103.46z"/>
		</g>
	</g>
</g>
</svg>
